<?xml version="1.0" standalone="no"?>
<!DOCTYPE svg PUBLIC "-//W3C//DTD SVG 20010904//EN"
 "http://www.w3.org/TR/2001/REC-SVG-20010904/DTD/svg10.dtd">
<svg version="1.0" xmlns="http://www.w3.org/2000/svg"
 width="500.000000pt" height="500.000000pt" viewBox="0 0 500.000000 500.000000"
 preserveAspectRatio="xMidYMid meet">

<g transform="translate(0.000000,500.000000) scale(0.100000,-0.100000)"
fill="#000000" stroke="none">
<path d="M2360 3197 c-131 -37 -260 -90 -439 -183 -157 -82 -321 -173 -321
-179 0 -1 44 13 99 32 72 24 124 35 193 40 102 6 138 -3 138 -37 0 -41 -154
-155 -263 -195 -26 -10 -46 -19 -44 -21 9 -9 141 32 213 66 63 31 98 56 161
119 70 71 85 81 116 81 30 0 42 -8 82 -52 25 -29 67 -86 92 -125 26 -40 48
-71 50 -69 2 2 -6 29 -17 59 -30 80 -107 193 -178 260 l-62 58 47 21 c56 25
185 38 166 17 -9 -9 -13 -48 -13 -121 0 -97 2 -108 20 -118 11 -6 28 -10 38
-8 14 3 18 -9 25 -72 5 -41 14 -111 20 -155 l12 -80 40 -14 c57 -20 669 -22
703 -3 42 24 52 69 51 214 -1 73 -4 122 -6 108 -9 -52 -24 -88 -49 -111 -25
-24 -27 -24 -242 -24 -244 0 -301 9 -383 58 -73 44 -110 115 -112 213 -1 78
14 117 56 148 24 18 46 21 142 25 143 4 265 -12 380 -50 96 -32 152 -74 176
-131 24 -59 20 -17 -6 62 -37 112 -52 121 -283 162 -84 15 -173 22 -317 24
-185 4 -206 2 -285 -19z"/>
<path d="M1523 2569 c40 -31 64 -91 77 -189 18 -139 65 -214 161 -254 18 -8
61 -30 93 -50 33 -20 65 -36 70 -36 6 1 -11 12 -38 26 -37 20 -46 28 -35 35
11 7 9 9 -8 9 -19 0 -73 51 -73 69 0 4 -9 48 -19 99 -22 100 -51 166 -78 176
-14 6 -13 3 4 -16 28 -29 49 -80 57 -138 9 -63 27 -133 37 -144 37 -41 -50 -5
-88 36 -36 38 -61 107 -72 197 -6 46 -9 87 -6 91 3 5 2 10 -2 12 -5 1 -21 20
-36 40 -15 21 -38 43 -50 48 -16 8 -14 5 6 -11z"/>
<path d="M2518 2454 c-13 -12 -9 -61 5 -72 7 -6 69 -14 137 -18 l123 -7 -7 34
c-3 18 -12 39 -19 46 -14 13 -228 29 -239 17z"/>
<path d="M3153 2453 c-39 -4 -43 -7 -49 -38 -3 -18 -4 -38 -1 -42 8 -12 176 4
193 18 8 6 14 19 14 28 0 39 -29 45 -157 34z"/>
<path d="M1888 2093 c6 -2 18 -2 25 0 6 3 1 5 -13 5 -14 0 -19 -2 -12 -5z"/>
<path d="M1963 2083 c9 -2 23 -2 30 0 6 3 -1 5 -18 5 -16 0 -22 -2 -12 -5z"/>
<path d="M2053 2073 c9 -2 23 -2 30 0 6 3 -1 5 -18 5 -16 0 -22 -2 -12 -5z"/>
<path d="M2383 2053 c9 -2 25 -2 35 0 9 3 1 5 -18 5 -19 0 -27 -2 -17 -5z"/>
<path d="M2488 2043 c6 -2 18 -2 25 0 6 3 1 5 -13 5 -14 0 -19 -2 -12 -5z"/>
</g>
</svg>
